<svg width="40" height="40" viewBox="0 0 40 40" fill="none" xmlns="http://www.w3.org/2000/svg">
<path d="M6 8.62847L6.32073 12.8625C7.02635 12.7322 7.53952 12.6671 8.24513 12.5694C9.17526 12.4391 11.1959 12.2111 12.4467 12.0808C9.46392 15.9566 7.28293 19.8975 7.28293 25.2063C7.28293 31.1339 11.677 34 16.8087 34C25.7892 34 28.291 26.965 27.8419 19.5392C28.9324 21.4608 30.0871 23.1218 31.4021 24.62L34 20.842C29.0928 16.2497 27.7778 11.0712 27.1684 7L23.0951 8.13993C23.2875 8.72618 23.48 9.31243 23.6724 9.89867C26.2383 21.8191 24.0252 29.6031 16.9049 29.6031C13.8259 29.6031 11.4204 28.1049 11.4204 24.2943C11.4204 18.041 15.7182 13.0253 17.9313 11.3317C18.4124 11.0386 19.0538 10.8106 19.5349 10.6152L18.3482 7C16.1993 7.78166 10.8751 8.49819 7.82818 8.62847C7.21879 8.66104 6.57732 8.66104 6 8.62847Z" fill="black"/>
</svg>
