<svg width="40" height="40" viewBox="0 0 40 40" fill="none" xmlns="http://www.w3.org/2000/svg">
<path d="M21.7959 6H16.9518C17.0837 6.79339 17.1825 8.31405 17.1825 9.04132C17.1825 10.0331 17.1496 10.9917 17.1166 11.9174H12.4043C11.1521 11.9174 9.43853 11.8182 8.0545 11.6859V16.0165C9.47148 15.8843 11.2839 15.8843 12.4043 15.8843H16.7541C16.0292 20.9091 14.3815 24.6116 11.3169 27.6529C9.99873 29.0083 8.35108 30.1322 7 30.8926L10.8226 34C16.7212 29.8017 19.8517 24.6116 21.071 15.8843H28.4854C28.4854 19.4545 28.057 26.0661 27.1014 28.1488C26.7389 28.9422 26.2776 29.3058 25.2231 29.3058C23.9379 29.3058 22.2243 29.1405 20.6096 28.843L21.1369 33.2727C22.7186 33.405 24.6958 33.5372 26.5741 33.5372C28.8479 33.5372 30.1001 32.6777 30.8251 30.9917C32.2421 27.6198 32.6375 18.3967 32.7693 14.8264C32.7693 14.4628 32.9011 13.6033 33 13.0744L30.1331 11.6859C29.3422 11.8182 28.4854 11.9174 27.6616 11.9174H21.4664C21.5323 10.9587 21.5653 9.96694 21.5982 8.94215C21.6312 8.14876 21.6971 6.76033 21.7959 6Z" fill="black"/>
</svg>
